<svg t="1705652867613" class="icon" viewBox="0 0 1024 1024" version="1.1" xmlns="http://www.w3.org/2000/svg" p-id="2566" width="20" height="20"><path d="M895.2832 399.93344h-79.03232c-3.60448 0.06144-7.168 1.024-10.30144 2.7648l-35.61472-107.08992c-11.3664-60.88704-54.35392-90.3168-107.13088-90.3168H328.4992c-60.6208 0-97.40288 39.44448-107.15136 90.25536l-35.71712 107.43808a21.97504 21.97504 0 0 0-10.93632-3.09248H95.68256a21.97504 21.97504 0 0 0-22.016 21.95456v19.0464c0 12.10368 9.85088 21.97504 22.016 21.97504l29.9008 5.12a137.56416 137.56416 0 0 0-14.80704 64.06144l-11.07968 126.3616c0 3.64544 0.26624 7.3728 0.7168 11.14112a42.1888 42.1888 0 0 0-0.7168 7.168v152.02304c0 21.64736 17.57184 39.15776 39.26016 39.15776H198.8608a39.19872 39.19872 0 0 0 39.28064-39.15776v-48.82432h515.39968v48.82432c0 21.64736 17.57184 39.15776 39.26016 39.15776h59.94496a39.19872 39.19872 0 0 0 39.26016-39.15776v-152.04352c0-2.39616-0.26624-4.79232-0.73728-7.14752 0.45056-3.76832 0.73728-7.49568 0.73728-11.1616l-11.10016-126.3616c0-24.59648-5.40672-45.6704-14.86848-64.14336l29.22496-4.95616a21.97504 21.97504 0 0 0 22.03648-21.97504v-19.0464a22.07744 22.07744 0 0 0-22.03648-21.97504z m-647.55712-22.46656l26.15296-69.46816 0.32768-1.6384c2.60096-14.00832 8.3968-16.54784 16.9984-27.36128h409.55904c8.68352 11.14112 14.09024 13.96736 16.44544 27.25888l26.60352 71.2704 9.74848 38.7072c-2.21184 28.32384-36.352 50.688-64.67584 50.688H302.65344c-28.38528 0-62.52544-22.36416-64.7168-50.70848l9.78944-38.74816z m18.30912 330.38336a59.392 59.392 0 1 1 5.18144-118.62016 59.392 59.392 0 0 1-5.18144 118.62016z m332.20608-43.76576a17.69472 17.69472 0 0 1-17.69472 17.63328H413.696a17.69472 17.69472 0 0 1-17.69472-17.6128v-49.58208c0-9.74848 7.94624-17.63328 17.69472-17.63328h166.85056c9.74848 0 17.69472 7.8848 17.69472 17.6128v49.58208z m127.26272 43.76576a59.392 59.392 0 0 1-59.4944-59.31008 59.392 59.392 0 0 1 59.4944-59.31008 59.392 59.392 0 0 1 59.47392 59.31008 59.43296 59.43296 0 0 1-59.47392 59.31008z" fill="#ffffff" p-id="2567"></path></svg>