<svg t="1705653301650" class="icon" viewBox="0 0 1317 1024" version="1.1" xmlns="http://www.w3.org/2000/svg" p-id="14652" width="20" height="20"><path d="M45.11 694.696a37.592 37.592 0 1 0 0 75.184h676.653a164.652 164.652 0 1 0 136.834-75.184H45.11z m0-219.536C9.775 475.16 0 491.7 0 512s9.774 36.84 45.11 36.84h1106.703a163.9 163.9 0 1 0-136.834-75.184zM40.6 255.624a37.592 37.592 0 0 0 0 75.184h601.468a164.652 164.652 0 1 0-136.834-75.184z" fill="#1296DB" p-id="14653"></path><path d="M45.11 694.696a37.592 37.592 0 1 0 0 75.184h676.653a164.652 164.652 0 1 0 136.834-75.184H45.11z m0-219.536C9.775 475.16 0 491.7 0 512s9.774 36.84 45.11 36.84h1106.703a163.9 163.9 0 1 0-136.834-75.184zM40.6 255.624a37.592 37.592 0 0 0 0 75.184h601.468a164.652 164.652 0 1 0-136.834-75.184z" fill="#1296DB" p-id="14654"></path></svg>