<svg t="1705314289394" class="icon" viewBox="0 0 1024 1024" version="1.1" xmlns="http://www.w3.org/2000/svg" p-id="5312" width="20" height="20"><path d="M220.1 688.1c-57 36.7-122.2 65.2-122.2 110s18.3 95.8 18.3 95.8 550.7 30.59999999 576.6 0c36-42.7 140.6-399.3 175.2-454.3 34.59999999-55 30.6-75.4 30.6-75.4s-25.5-20.1-57.3-37l4.9-19.2c23.4 7.10000001 44.1 7.10000001 60.6-8.6 32.99999999-31.6 24.7-93.8-18.49999999-139s-106.2-57.6-138.00000001-24.7c-53.5 55.4-38.7 113.7 18.49999999 139 5 2.19999999 9.9 4.5 14.70000001 6.7l-6 23.4c-14.3-1.6-27.5 0.2-37.9 7.7-48.9 35.39999999-218 186.1-220 396L377 708.5s-99.9-57-156.9-20.4z m0 0" fill="#ffffff" p-id="5313"></path></svg>