<svg t="1705653194818" class="icon" viewBox="0 0 1024 1024" version="1.1" xmlns="http://www.w3.org/2000/svg" p-id="11514" width="20" height="20"><path d="M361.297185 927.284261 361.297185 473.279117c0-3.309372-0.774643-6.407943-1.877767-9.29776-4.871961-68.15117-61.047378-122.069173-130.433678-122.069173-72.551386 0-131.366933 58.802244-131.366933 131.366933 0 48.980551 27.050076 93.180216 69.465095 115.898637 13.091156 7.011694 29.387307 2.073218 36.386722-11.030218 7.024997-13.078877 2.100848-29.389354-11.004635-36.375465-25.093515-13.446243-41.061185-39.550785-41.061185-68.492954 0-42.834574 34.746362-77.580936 77.579913-77.580936 42.87346 0 77.593216 34.719756 77.593216 77.580936 0 1.654686 0.64366 3.098571 0.932232 4.674463l0 449.331705c0 14.838963 12.054547 26.89351 26.89351 26.89351C349.25594 954.178795 361.297185 942.123224 361.297185 927.284261" fill="#d81e06" p-id="11515"></path><path d="M682.480254 347.610976l0 572.609403c0 14.838963 12.028964 26.89351 26.892487 26.89351 14.813381 0 26.89351-12.054547 26.89351-26.89351L736.266251 347.610976c0-42.86118 34.719756-77.580936 77.579913-77.580936s77.580936 34.719756 77.580936 77.580936c0 28.942169-15.96767 55.021128-41.024345 68.440765-13.130042 7.012717-18.041912 23.321148-11.029194 36.400025 6.985088 13.104459 23.321148 18.016329 36.400025 11.030218 42.388413-22.690792 69.438489-66.919109 69.438489-115.872031 0-72.563666-58.82885-131.366933-131.366933-131.366933C741.282498 216.244043 682.480254 275.04731 682.480254 347.610976" fill="#d81e06" p-id="11516"></path><path d="M286.184463 199.015659c0 39.23663 17.320481 75.743078 46.747697 100.508112 11.346419 9.559727 28.311813 8.115841 37.897122-3.257184 9.559727-11.345396 8.115841-28.310789-3.25616-37.897122-17.384949-14.653745-27.602661-36.137035-27.602661-59.353806 0-42.834574 34.746362-77.579913 77.593216-77.579913 42.834574 0 77.579913 34.746362 77.579913 77.579913l0 723.567533c0 14.83794 12.056594 26.892487 26.894534 26.892487 14.854313 0 26.894534-12.054547 26.894534-26.892487L548.932656 199.015659c0-72.539106-58.8442-131.366933-131.36898-131.366933C345.001033 67.648726 286.184463 126.451994 286.184463 199.015659" fill="#d81e06" p-id="11517"></path></svg>