<svg t="1705318292695" class="icon" viewBox="0 0 1024 1024" version="1.1" xmlns="http://www.w3.org/2000/svg" p-id="8266" width="20" height="20"><path d="M512 909.061224c-218.906122 0-397.061224-178.155102-397.061224-397.061224s178.155102-397.061224 397.061224-397.061224 397.061224 178.155102 397.061224 397.061224-178.155102 397.061224-397.061224 397.061224z" fill="#F2CB51" p-id="8267"></path><path d="M512 690.677551m-31.346939 0a31.346939 31.346939 0 1 0 62.693878 0 31.346939 31.346939 0 1 0-62.693878 0Z" fill="#E5404F" p-id="8268"></path><path d="M512 584.097959c-11.493878 0-20.897959-9.404082-20.897959-20.897959v-261.22449c0-11.493878 9.404082-20.897959 20.897959-20.897959s20.897959 9.404082 20.897959 20.897959v261.22449c0 12.016327-9.404082 20.897959-20.897959 20.897959z" fill="#E5404F" p-id="8269"></path></svg>